<svg width="24.000000" height="24.000000" viewBox="0 0 24 24" fill="none" xmlns="http://www.w3.org/2000/svg" xmlns:xlink="http://www.w3.org/1999/xlink">
	<desc>
			Created with Pixso.
	</desc>
	<defs>
		<clipPath id="clip8226_15">
			<rect rx="0.000000" width="23.000000" height="23.000000" transform="translate(0.500000 0.500000)" fill="white" fill-opacity="0"/>
		</clipPath>
	</defs>
	<rect rx="0.000000" width="23.000000" height="23.000000" transform="translate(0.500000 0.500000)" fill="#FFFFFF" fill-opacity="0"/>
	<g clip-path="url(#clip8226_15)">
		<path d="M12 0.75C9.88 0.75 7.8 1.35 6.01 2.48L17.97 2.48C16.18 1.35 14.11 0.75 12 0.75Z" fill="#B22234" fill-opacity="1.000000" fill-rule="nonzero"/>
		<path d="M6.01 2.48C5.24 2.96 4.53 3.55 3.89 4.21L20.11 4.21C19.47 3.54 18.75 2.96 17.97 2.48L6.01 2.48Z" fill="#FFFFFF" fill-opacity="1.000000" fill-rule="nonzero"/>
		<path d="M3.89 4.21C3.38 4.74 2.93 5.32 2.53 5.94L21.47 5.94C21.08 5.32 20.62 4.74 20.11 4.21L3.89 4.21Z" fill="#B22234" fill-opacity="1.000000" fill-rule="nonzero"/>
		<path d="M2.53 5.94C2.17 6.49 1.87 7.07 1.61 7.67L22.37 7.67C22.12 7.07 21.82 6.49 21.47 5.94L2.53 5.94Z" fill="#FFFFFF" fill-opacity="1.000000" fill-rule="nonzero"/>
		<path d="M1.61 7.67C1.38 8.23 1.2 8.81 1.06 9.4L22.93 9.4C22.79 8.81 22.6 8.23 22.37 7.67L1.61 7.67Z" fill="#B22234" fill-opacity="1.000000" fill-rule="nonzero"/>
		<path d="M1.06 9.4C0.93 9.97 0.83 10.55 0.79 11.13L23.21 11.13C23.16 10.55 23.07 9.97 22.93 9.4L1.06 9.4Z" fill="#FFFFFF" fill-opacity="1.000000" fill-rule="nonzero"/>
		<path d="M0.79 11.13C0.76 11.42 0.75 11.71 0.75 12C0.75 12.28 0.76 12.57 0.78 12.86L23.2 12.86C23.23 12.57 23.24 12.28 23.25 12C23.24 11.71 23.23 11.42 23.21 11.13L0.79 11.13Z" fill="#B22234" fill-opacity="1.000000" fill-rule="nonzero"/>
		<path d="M0.78 12.86C0.83 13.44 0.92 14.02 1.06 14.59L22.93 14.59C23.06 14.02 23.16 13.44 23.2 12.86L0.78 12.86Z" fill="#FFFFFF" fill-opacity="1.000000" fill-rule="nonzero"/>
		<path d="M1.06 14.59C1.2 15.18 1.39 15.76 1.62 16.32L22.38 16.32C22.61 15.76 22.79 15.18 22.93 14.59L1.06 14.59Z" fill="#B22234" fill-opacity="1.000000" fill-rule="nonzero"/>
		<path d="M1.62 16.32C1.87 16.92 2.17 17.5 2.52 18.05L21.46 18.05C21.82 17.5 22.12 16.92 22.38 16.32L1.62 16.32Z" fill="#FFFFFF" fill-opacity="1.000000" fill-rule="nonzero"/>
		<path d="M2.52 18.05C2.91 18.67 3.37 19.25 3.88 19.78L20.1 19.78C20.61 19.25 21.06 18.67 21.46 18.05L2.52 18.05Z" fill="#B22234" fill-opacity="1.000000" fill-rule="nonzero"/>
		<path d="M3.88 19.78C4.52 20.45 5.24 21.03 6.02 21.51L17.98 21.51C18.75 21.03 19.46 20.44 20.1 19.78L3.88 19.78Z" fill="#FFFFFF" fill-opacity="1.000000" fill-rule="nonzero"/>
		<path d="M6.02 21.51C7.81 22.64 9.88 23.24 12 23.25C14.11 23.24 16.19 22.64 17.98 21.51L6.02 21.51Z" fill="#B22234" fill-opacity="1.000000" fill-rule="nonzero"/>
		<path d="M12 0.75C9.01 0.75 6.15 1.93 4.04 4.04C1.93 6.15 0.75 9.01 0.75 12C0.75 12.29 0.76 12.59 0.78 12.89L12.89 12.89L12.89 0.79C12.59 0.76 12.29 0.75 12 0.75Z" fill="#3C3B6E" fill-opacity="1.000000" fill-rule="nonzero"/>
		<path d="M7.97 1.5C7.82 1.56 7.67 1.62 7.52 1.68L7.69 1.8L7.58 2.16L7.87 1.94L8.17 2.17L8.06 1.8L8.36 1.57L7.99 1.57L7.97 1.5ZM9.88 1.2L9.76 1.57L9.39 1.57L9.69 1.8L9.58 2.16L9.87 1.94L10.18 2.17L10.06 1.8L10.37 1.57L9.99 1.57L9.88 1.2ZM11.88 1.2L11.76 1.57L11.39 1.57L11.69 1.8L11.58 2.16L11.88 1.94L12.18 2.17L12.06 1.8L12.37 1.57L12 1.57L11.88 1.2ZM5.07 3.14C5.02 3.18 4.97 3.22 4.92 3.26L5.17 3.45L5.07 3.14ZM6.87 2.48L6.76 2.86L6.39 2.86L6.69 3.08L6.57 3.44L6.87 3.22L7.17 3.45L7.06 3.08L7.36 2.86L6.99 2.86L6.87 2.48ZM8.88 2.48L8.76 2.86L8.39 2.86L8.69 3.08L8.58 3.44L8.87 3.22L9.17 3.45L9.06 3.08L9.36 2.86L8.99 2.86L8.88 2.48ZM10.88 2.48L10.76 2.86L10.39 2.86L10.69 3.08L10.58 3.44L10.87 3.22L11.18 3.45L11.06 3.08L11.37 2.86L10.99 2.86L10.88 2.48ZM3.98 4.11C3.87 4.23 3.76 4.35 3.65 4.47L3.57 4.73L3.87 4.51L4.17 4.74L4.05 4.37L4.36 4.14L3.99 4.14L3.98 4.11ZM5.87 3.76L5.76 4.14L5.38 4.14L5.68 4.37L5.57 4.73L5.87 4.51L6.17 4.74L6.06 4.37L6.36 4.14L5.99 4.14L5.87 3.76ZM7.87 3.76L7.76 4.14L7.39 4.14L7.69 4.37L7.58 4.73L7.87 4.51L8.17 4.74L8.06 4.37L8.36 4.14L7.99 4.14L7.87 3.76ZM9.88 3.76L9.76 4.14L9.39 4.14L9.69 4.37L9.58 4.73L9.87 4.51L10.18 4.74L10.06 4.37L10.37 4.14L9.99 4.14L9.88 3.76ZM11.88 3.76L11.76 4.14L11.39 4.14L11.69 4.37L11.58 4.73L11.88 4.51L12.18 4.74L12.06 4.37L12.37 4.14L12 4.14L11.88 3.76ZM2.95 5.32C2.85 5.46 2.75 5.6 2.65 5.74L2.57 6.01L2.86 5.79L3.17 6.02L3.05 5.65L3.36 5.42L2.98 5.42L2.95 5.32ZM4.87 5.04L4.75 5.42L4.38 5.42L4.68 5.65L4.57 6.01L4.87 5.79L5.17 6.02L5.06 5.65L5.36 5.42L4.99 5.42L4.87 5.04ZM6.87 5.04L6.76 5.42L6.39 5.42L6.69 5.65L6.57 6.01L6.87 5.79L7.17 6.02L7.06 5.65L7.36 5.42L6.99 5.42L6.87 5.04ZM8.88 5.04L8.76 5.42L8.39 5.42L8.69 5.65L8.58 6.01L8.87 5.79L9.17 6.02L9.06 5.65L9.36 5.42L8.99 5.42L8.88 5.04ZM10.88 5.04L10.76 5.42L10.39 5.42L10.69 5.65L10.58 6.01L10.87 5.79L11.18 6.02L11.06 5.65L11.37 5.42L10.99 5.42L10.88 5.04ZM2.08 6.71C2.01 6.83 1.94 6.96 1.88 7.09L2.17 7.3L2.05 6.93L2.36 6.71L2.08 6.71ZM3.87 6.33L3.75 6.71L3.38 6.71L3.68 6.93L3.57 7.29L3.87 7.07L4.17 7.3L4.05 6.93L4.36 6.71L3.99 6.71L3.87 6.33ZM5.87 6.33L5.76 6.71L5.38 6.71L5.68 6.93L5.57 7.29L5.87 7.07L6.17 7.3L6.06 6.93L6.36 6.71L5.99 6.71L5.87 6.33ZM7.87 6.33L7.76 6.71L7.39 6.71L7.69 6.93L7.58 7.29L7.87 7.07L8.17 7.3L8.06 6.93L8.36 6.71L7.99 6.71L7.87 6.33ZM9.88 6.33L9.76 6.71L9.39 6.71L9.69 6.93L9.58 7.29L9.87 7.07L10.18 7.3L10.06 6.93L10.37 6.71L9.99 6.71L9.88 6.33ZM11.88 6.33L11.76 6.71L11.39 6.71L11.69 6.93L11.58 7.29L11.88 7.07L12.18 7.3L12.06 6.93L12.37 6.71L12 6.71L11.88 6.33ZM2.87 7.61L2.75 7.99L2.38 7.99L2.68 8.22L2.57 8.58L2.86 8.36L3.17 8.59L3.05 8.21L3.36 7.99L2.98 7.99L2.87 7.61ZM4.87 7.61L4.75 7.99L4.38 7.99L4.68 8.22L4.57 8.58L4.87 8.36L5.17 8.59L5.06 8.21L5.36 7.99L4.99 7.99L4.87 7.61ZM6.87 7.61L6.76 7.99L6.39 7.99L6.69 8.22L6.57 8.58L6.87 8.36L7.17 8.59L7.06 8.21L7.36 7.99L6.99 7.99L6.87 7.61ZM8.88 7.61L8.76 7.99L8.39 7.99L8.69 8.22L8.58 8.58L8.87 8.36L9.17 8.59L9.06 8.21L9.36 7.99L8.99 7.99L8.88 7.61ZM10.88 7.61L10.76 7.99L10.39 7.99L10.69 8.22L10.58 8.58L10.87 8.36L11.18 8.59L11.06 8.21L11.37 7.99L10.99 7.99L10.88 7.61ZM1.87 8.89L1.75 9.27L1.38 9.27L1.68 9.5L1.57 9.86L1.86 9.64L2.17 9.87L2.05 9.5L2.36 9.27L1.98 9.27L1.87 8.89ZM3.87 8.89L3.75 9.27L3.38 9.27L3.68 9.5L3.57 9.86L3.87 9.64L4.17 9.87L4.05 9.5L4.36 9.27L3.99 9.27L3.87 8.89ZM5.87 8.89L5.76 9.27L5.38 9.27L5.68 9.5L5.57 9.86L5.87 9.64L6.17 9.87L6.06 9.5L6.36 9.27L5.99 9.27L5.87 8.89ZM7.87 8.89L7.76 9.27L7.39 9.27L7.69 9.5L7.58 9.86L7.87 9.64L8.17 9.87L8.06 9.5L8.36 9.27L7.99 9.27L7.87 8.89ZM9.88 8.89L9.76 9.27L9.39 9.27L9.69 9.5L9.58 9.86L9.87 9.64L10.18 9.87L10.06 9.5L10.37 9.27L9.99 9.27L9.88 8.89ZM11.88 8.89L11.76 9.27L11.39 9.27L11.69 9.5L11.58 9.86L11.88 9.64L12.18 9.87L12.06 9.5L12.37 9.27L12 9.27L11.88 8.89ZM2.87 10.18L2.75 10.55L2.38 10.55L2.68 10.78L2.57 11.14L2.86 10.92L3.17 11.15L3.05 10.78L3.36 10.55L2.98 10.55L2.87 10.18ZM4.87 10.18L4.75 10.55L4.38 10.55L4.68 10.78L4.57 11.14L4.87 10.92L5.17 11.15L5.06 10.78L5.36 10.55L4.99 10.55L4.87 10.18ZM6.87 10.18L6.76 10.55L6.39 10.55L6.69 10.78L6.57 11.14L6.87 10.92L7.17 11.15L7.06 10.78L7.36 10.55L6.99 10.55L6.87 10.18ZM8.88 10.18L8.76 10.55L8.39 10.55L8.69 10.78L8.58 11.14L8.87 10.92L9.17 11.15L9.06 10.78L9.36 10.55L8.99 10.55L8.88 10.18ZM10.88 10.18L10.76 10.55L10.39 10.55L10.69 10.78L10.58 11.14L10.87 10.92L11.18 11.15L11.06 10.78L11.37 10.55L10.99 10.55L10.88 10.18ZM1.87 11.46L1.75 11.84L1.38 11.84L1.68 12.06L1.57 12.42L1.86 12.2L2.17 12.43L2.05 12.06L2.36 11.84L1.98 11.84L1.87 11.46ZM3.87 11.46L3.75 11.84L3.38 11.84L3.68 12.06L3.57 12.42L3.87 12.2L4.17 12.43L4.05 12.06L4.36 11.84L3.99 11.84L3.87 11.46ZM5.87 11.46L5.76 11.84L5.38 11.84L5.68 12.06L5.57 12.42L5.87 12.2L6.17 12.43L6.06 12.06L6.36 11.84L5.99 11.84L5.87 11.46ZM7.87 11.46L7.76 11.84L7.39 11.84L7.69 12.06L7.58 12.42L7.87 12.2L8.17 12.43L8.06 12.06L8.36 11.84L7.99 11.84L7.87 11.46ZM9.88 11.46L9.76 11.84L9.39 11.84L9.69 12.06L9.58 12.42L9.87 12.2L10.18 12.43L10.06 12.06L10.37 11.84L9.99 11.84L9.88 11.46ZM11.88 11.46L11.76 11.84L11.39 11.84L11.69 12.06L11.58 12.42L11.88 12.2L12.18 12.43L12.06 12.06L12.37 11.84L12 11.84L11.88 11.46Z" fill="#FFFFFF" fill-opacity="1.000000" fill-rule="nonzero"/>
	</g>
</svg>
